<svg width="105" height="88" viewBox="0 0 105 88" fill="none" xmlns="http://www.w3.org/2000/svg">
<path d="M0 50.6H104.267V84.4C104.267 86.0568 102.924 87.4 101.267 87.4H3C1.34315 87.4 0 86.0568 0 84.4V50.6Z" fill="url(#paint0_linear_1_38)"/>
<rect width="104.267" height="56.7333" rx="3" fill="#986A44"/>
<rect x="44.4667" y="56.7333" width="56.7333" height="15.3333" transform="rotate(-90 44.4667 56.7333)" fill="#CDAB8F"/>
<rect x="44.4667" y="87.4" width="30.6667" height="15.3333" transform="rotate(-90 44.4667 87.4)" fill="#A58A73"/>
<g filter="url(#filter0_d_1_38)">
<path d="M53.1012 36.4327C50.8085 41.0919 47.0139 44.8434 42.3289 47.0829C37.6439 49.3224 32.3414 49.9194 27.2757 48.7776C22.2101 47.6359 17.6763 44.8219 14.405 40.7892C11.1337 36.7564 9.31541 31.7397 9.24306 26.5475C9.1707 21.3553 10.8485 16.2899 14.0062 12.1676C17.1638 8.04524 21.6174 5.10604 26.6493 3.82359C31.6812 2.54113 36.9983 2.99011 41.7438 5.09818C46.4894 7.20625 50.3871 10.8506 52.8088 15.4441L32.3588 26.2254L53.1012 36.4327Z" fill="#F5C211"/>
<circle cx="68.5754" cy="26.7744" r="4.95385" fill="#F5C211"/>
<circle cx="82.4462" cy="26.7744" r="4.95385" fill="#F5C211"/>
<circle cx="54.7046" cy="26.7744" r="4.95385" fill="#F5C211"/>
</g>
<defs>
<filter id="filter0_d_1_38" x="5.24081" y="3.10744" width="86.1592" height="54.2359" filterUnits="userSpaceOnUse" color-interpolation-filters="sRGB">
<feFlood flood-opacity="0" result="BackgroundImageFix"/>
<feColorMatrix in="SourceAlpha" type="matrix" values="0 0 0 0 0 0 0 0 0 0 0 0 0 0 0 0 0 0 127 0" result="hardAlpha"/>
<feOffset dy="4"/>
<feGaussianBlur stdDeviation="2"/>
<feComposite in2="hardAlpha" operator="out"/>
<feColorMatrix type="matrix" values="0 0 0 0 0 0 0 0 0 0 0 0 0 0 0 0 0 0 0.25 0"/>
<feBlend mode="normal" in2="BackgroundImageFix" result="effect1_dropShadow_1_38"/>
<feBlend mode="normal" in="SourceGraphic" in2="effect1_dropShadow_1_38" result="shape"/>
</filter>
<linearGradient id="paint0_linear_1_38" x1="0" y1="50.6" x2="104.267" y2="50.6" gradientUnits="userSpaceOnUse">
<stop stop-color="#986A44"/>
<stop offset="0.0997642" stop-color="#63452C"/>
<stop offset="0.923935" stop-color="#63452C"/>
<stop offset="1" stop-color="#986A44"/>
</linearGradient>
</defs>
</svg>
